<?xml version="1.0" encoding="UTF-8" standalone="no"?>
<svg
   xmlns:dc="http://purl.org/dc/elements/1.1/"
   xmlns:cc="http://creativecommons.org/ns#"
   xmlns:rdf="http://www.w3.org/1999/02/22-rdf-syntax-ns#"
   xmlns:svg="http://www.w3.org/2000/svg"
   xmlns="http://www.w3.org/2000/svg"
   xmlns:sodipodi="http://sodipodi.sourceforge.net/DTD/sodipodi-0.dtd"
   xmlns:inkscape="http://www.inkscape.org/namespaces/inkscape"
   version="1.1"
   id="polyLogo"
   x="0px"
   y="0px"
   viewBox="0 0 53.998 49.370001"
   xml:space="preserve"
   sodipodi:docname="polytech_pi.svg"
   inkscape:version="0.92.2 2405546, 2018-03-11"
   width="53.998001"
   height="49.369999"><metadata
   id="metadata12"><rdf:RDF><cc:Work
       rdf:about=""><dc:format>image/svg+xml</dc:format><dc:type
         rdf:resource="http://purl.org/dc/dcmitype/StillImage" /><dc:title /></cc:Work></rdf:RDF></metadata><defs
   id="defs10" /><sodipodi:namedview
   pagecolor="#ffffff"
   bordercolor="#666666"
   borderopacity="1"
   objecttolerance="10"
   gridtolerance="10"
   guidetolerance="10"
   inkscape:pageopacity="0"
   inkscape:pageshadow="2"
   inkscape:window-width="1920"
   inkscape:window-height="1139"
   id="namedview8"
   showgrid="false"
   inkscape:zoom="4.4830189"
   inkscape:cx="97.188289"
   inkscape:cy="41.726268"
   inkscape:window-x="1280"
   inkscape:window-y="0"
   inkscape:window-maximized="1"
   inkscape:current-layer="polyLogo" />
<style
   type="text/css"
   id="style2">
	.st0{fill:#37B34A;}
	.st1{fill:#404041;}
</style>
<path
   id="polytechLogo"
   class="st0"
   d="m 50.352,0 c 1.473,0.631 3.997,4.418 3.436,8.556 -2.875,2.314 -6.312,3.927 -9.608,4.418 v 26.368 h 9.818 c 0,4.067 -0.631,7.293 -1.332,8.486 H 34.714 V 13.394 H 22.231 V 33.942 C 22.231,44.321 16.41,49.37 8.977,49.37 6.873,49.37 4.419,49.089 2.245,48.458 1.263,47.126 0.772,43.128 0.632,38.149 5.541,40.533 12.273,41.655 12.834,33.941 V 14.727 C 5.33,15.498 2.595,20.758 0,24.265 0.07,19.566 0.281,15.289 0.561,12.413 5.68,6.873 11.431,4.278 22.792,4.278 h 16.2 C 42.919,4.348 46.776,2.875 50.352,0"
   inkscape:connector-curvature="0"
   style="fill:#ffffff"
   sodipodi:nodetypes="cccccccccssccccccscc" />


</svg>